<svg xmlns="http://www.w3.org/2000/svg" viewBox="0 0 24 24" fill="green" width="24" height="24">
    <path
        d="M12 1C5.925 1 1 5.925 1 12s4.925 11 11 11 11-4.925 11-11S18.075 1 12 1zm0 20c-4.962 0-9-4.038-9-9s4.038-9 9-9 9 4.038 9 9-4.038 9-9 9zm-.5-13h1c.276 0 .5.224.5.5v.5c1.379 0 2.5 1.121 2.5 2.5s-1.121 2.5-2.5 2.5v1h1c.276 0 .5.224.5.5s-.224.5-.5.5h-1v1c0 .276-.224.5-.5.5h-1c-.276 0-.5-.224-.5-.5v-1h-1c-.276 0-.5-.224-.5-.5s.224-.5.5-.5h1v-1c-1.379 0-2.5-1.121-2.5-2.5s1.121-2.5 2.5-2.5v-.5c0-.276.224-.5.5-.5zm0 3c.828 0 1.5.672 1.5 1.5S12.328 14 11.5 14s-1.5-.672-1.5-1.5S11.172 11 12 11z" />
</svg>