<svg viewBox="0 0 24 24" xmlns="http://www.w3.org/2000/svg" fill="none" stroke="currentColor" stroke-width="2" stroke-linecap="round" stroke-linejoin="round">
  <path d="M5.8 11.3L4 20h16l-1.8-8.7c-.1-.5-.5-.8-1-.8H6.8c-.5 0-.9.3-1 .8z"/>
  <path d="M16 7V4c0-1.1-.9-2-2-2h-4c-1.1 0-2 .9-2 2v3" fill="#FFB89A"/>
  <path d="M10 14l2 2 2-2"/>
  <path d="M3 22h18"/>
  <path d="M7 8h.01M17 8h.01M12 8h.01" stroke="#33CC99" stroke-width="2"/>
  <path d="M7 4h.01M17 4h.01M12 4h.01" stroke="#33CC99" stroke-width="2"/>
</svg>