<svg viewBox="0 0 24 24" xmlns="http://www.w3.org/2000/svg" fill="none" stroke="currentColor" stroke-width="2" stroke-linecap="round" stroke-linejoin="round">
  <path d="M5 17h14M5 17a2 2 0 01-2-2V7c0-1.1.9-2 2-2h14a2 2 0 012 2v8a2 2 0 01-2 2M5 17v2a1 1 0 001 1h1a1 1 0 001-1v-2M17 17v2a1 1 0 001 1h1a1 1 0 001-1v-2" stroke="#45484C"/>
  <path d="M3 10h18" stroke="#45484C"/>
  <path d="M5 5h14v12H5z" fill="#4A7AFF" opacity="0.3"/>
  <circle cx="7.5" cy="14.5" r="1.5" fill="#45484C"/>
  <circle cx="16.5" cy="14.5" r="1.5" fill="#45484C"/>
</svg>